<svg height="512" viewBox="0 0 256 256" width="512" xmlns="http://www.w3.org/2000/svg"><g fill="#44c7b6"><path d="m114.832 64.5-3.58 14.94a49.653 49.653 0 0 0 -22.12 7.76l-3.332-23.584-5.27-37.26 25.16 27.98z"/><path d="m177.382 26.356-5.26 37.26-3.5 24.77a49.733 49.733 0 0 0 -21.9-8.71l-3.63-15.18v-.01l9.13-10.15z"/><path d="m143.092 64.5v-.01l-14.13-59.05-14.13 59.06-3.58 14.94a48.911 48.911 0 0 1 5.02-.25h23.44a50.627 50.627 0 0 1 7.01.49z"/></g><path d="m168.622 88.386a49.733 49.733 0 0 0 -21.9-8.71 50.627 50.627 0 0 0 -7.01-.49h-23.44a48.911 48.911 0 0 0 -5.02.25 50.016 50.016 0 0 0 -44.98 49.75v76.37a45 45 0 0 0 45 45h33.44a45 45 0 0 0 45-45v-76.37a49.949 49.949 0 0 0 -21.09-40.8z" fill="#f9d335"/><path d="m103.242 80.906a49.573 49.573 0 0 0 -14.11 6.29l-3.332-23.58-5.27-37.26 17.8 19.79 2.47 17.47z" fill="#4bdbc3"/><path d="m177.382 26.356-5.26 37.26-3.5 24.77a49.888 49.888 0 0 0 -14.02-6.94l2.52-17.83 2.47-17.47z" fill="#3bb2a0"/><path d="m128.962 5.436 7.5 31.35-6.63 27.71-3.52 14.69h-10.04a48.911 48.911 0 0 0 -5.02.25l3.58-14.94z" fill="#4bdbc3"/><path d="m126.272 250.556h-15a45 45 0 0 1 -45-45v-76.37a50.016 50.016 0 0 1 44.98-49.75 48.911 48.911 0 0 1 5.02-.25h15a48.911 48.911 0 0 0 -5.02.25 50.016 50.016 0 0 0 -44.98 49.75v76.37a45 45 0 0 0 45 45z" fill="#f9e27d"/><path d="m189.712 129.186v76.37a45 45 0 0 1 -45 45h-15a45 45 0 0 0 45-45v-76.37a50 50 0 0 0 -42.99-49.51 50.627 50.627 0 0 0 -7.01-.49h15a50.627 50.627 0 0 1 7.01.49 50 50 0 0 1 42.99 49.51z" fill="#f2c300"/><path d="m193.259 122.307c0-.027-.006-.054-.012-.081a54.178 54.178 0 0 0 -20.336-35.609l8.432-59.7a4 4 0 0 0 -6.935-3.234l-29.2 32.468-12.356-51.646a4 4 0 0 0 -7.78 0l-12.361 51.65-29.2-32.474a4 4 0 0 0 -6.934 3.235l8.254 58.4a53.8 53.8 0 0 0 -22.554 43.872c0 70.655-.029 77.124.045 78.124a49.076 49.076 0 0 0 48.955 47.246c30.887 0 34.242.035 35.078-.042a49.043 49.043 0 0 0 47.362-48.958c-.005-83.03.166-78.42-.458-83.251zm-17.037 109.447-21.345-22.3 15.8-16.508c5.658 5.909 10.707 11.182 14.912 15.572a40.814 40.814 0 0 1 -9.367 23.236zm-28.631 14.69-14.061-14.69 15.809-16.513 21.19 22.135a40.8 40.8 0 0 1 -22.938 9.068zm-62.136-9.068c8-8.357 14.708-15.366 21.19-22.135l15.81 16.513-14.062 14.69a40.8 40.8 0 0 1 -22.938-9.068zm-15.064-28.855c4.311-4.5 9.36-9.772 14.912-15.571l15.8 16.507-21.345 22.3a40.814 40.814 0 0 1 -9.367-23.236zm10.785-109.061 19.938 20.828c-8.771 9.159-7.287 7.608-15.809 16.509l-14.412-15.052a45.712 45.712 0 0 1 10.283-22.285zm27.677-15.672 13.603 14.212-15.8 16.508c-7.177-7.5-13.9-14.519-19.792-20.676a45.852 45.852 0 0 1 21.989-10.044zm76.233 37.962-14.406 15.05c-4.944-5.163-10.35-10.809-15.806-16.509 7.5-7.835 14.314-14.954 19.924-20.817a46.151 46.151 0 0 1 10.288 22.276zm-94.245 65.417 15.809-16.51 15.8 16.5-15.81 16.511zm-20.569-23.1 15.033-15.7c1.511 1.577 14.172 14.8 15.807 16.508l-15.812 16.508-15.032-15.7zm41.916.808c5.225-5.456 10.535-11 15.8-16.508l15.8 16.507-15.8 16.506zm21.343-22.292 15.805-16.509 15.806 16.508-15.807 16.508zm-5.537-5.784-15.805-16.508c4.282-4.472 9.4-9.821 15.805-16.508l15.806 16.505zm-5.538 5.784-15.806 16.507-15.807-16.509 15.808-16.508zm5.537 50.365 15.807 16.509c-5.483 5.727-10.885 11.369-15.808 16.513-5.127-5.356-10.438-10.9-15.81-16.513zm5.538-5.784 15.8-16.506 15.808 16.51-15.8 16.507zm21.342-22.29 15.806-16.508 15.033 15.7v1.619l-15.031 15.7zm30.839-12.374-9.495-9.917 9.495-9.916zm-16.593-58.666c-5.568 5.819-12.335 12.888-19.783 20.669l-15.805-16.503c4.05-4.23 8.555-8.936 13.589-14.2a45.653 45.653 0 0 1 21.999 10.034zm-41.126-1.622-8.642-9.026h17.283zm-48.226 50.368-9.495 9.92v-19.836zm0 44.586-9.493 9.914v-19.829zm48.228 50.372 8.631 9.018h-17.266zm48.226-50.372 9.493-9.915v19.828zm-10.701-105.418a55.025 55.025 0 0 0 -15.52-5.58l-2.176-9.1-.351-1.467 24.119-26.82zm-36.558-59.123 10.211 42.675c.009.043.018.087.029.13l2.341 9.791c-1.272-.044.18-.031-25.159-.031.392-1.639-.015.061 2.338-9.758 0-.014 0-.028.007-.042zm-18.513 42.98-2.444 10.214a54.935 54.935 0 0 0 -15.735 4.993l-5.94-42.027z" fill="#5f266d"/></svg>